# xmcd CD database file
#
# Track frame offsets:
#	150
#	23689
#	43160
#	61450
#	81782
#	104223
#	126311
#	147244
#	168045
#	188703
#	210401
#	230593
#	250696
#	272876
#
# Disc length: 3884 seconds
#
# Revision: 0
# Processed by: cddbd v1.5.2PL0 Copyright (c) Steve Scherf et al.
# Submitted via: CDex 1.70beta2
#
DISCID=c60f2a0e
DTITLE=Fruko and Sus Tesos - Salsa caliente!!!
DYEAR=1999
DGENRE=Salsa
TTITLE0=Igualita que tu
TTITLE1=Ya llego fruko
TTITLE2=Caminando
TTITLE3=Mi libertad
TTITLE4=Negro candela
TTITLE5=Soy como soy
TTITLE6=El nuevo caiman
TTITLE7=El negro Lucumi
TTITLE8=Nuestro pan de cada dia
TTITLE9=El parcero
TTITLE10=Cuida tu mujer
TTITLE11=Cuanto tiempo paso
TTITLE12=El preso
TTITLE13=La charanga campesina
EXTD=YEAR: 1999
EXTT0=
EXTT1=
EXTT2=
EXTT3=
EXTT4=
EXTT5=
EXTT6=
EXTT7=
EXTT8=
EXTT9=
EXTT10=
EXTT11=
EXTT12=
EXTT13=
PLAYORDER=
